<?xml version="1.0" standalone="no"?>
<!DOCTYPE svg PUBLIC "-//W3C//DTD SVG 20010904//EN"
 "http://www.w3.org/TR/2001/REC-SVG-20010904/DTD/svg10.dtd">
<svg version="1.0" xmlns="http://www.w3.org/2000/svg"
 width="512.000000pt" height="512.000000pt" viewBox="0 0 512.000000 512.000000"
 preserveAspectRatio="xMidYMid meet">

<g transform="translate(0.000000,512.000000) scale(0.100000,-0.100000)"
fill="#000000" stroke="none">
<path d="M1045 4992 c-120 -41 -205 -117 -258 -230 l-32 -67 0 -2136 0 -2135
37 -75 c46 -93 112 -158 206 -202 l67 -32 1495 0 1495 0 67 32 c94 44 160 109
206 202 l37 75 3 1730 2 1731 -562 562 -563 563 -1075 0 c-993 -1 -1079 -2
-1125 -18z m2045 -678 c0 -422 2 -490 16 -519 31 -65 28 -65 568 -65 l486 0 0
-1611 c0 -1246 -3 -1621 -12 -1653 -16 -53 -81 -118 -134 -134 -60 -18 -2848
-18 -2908 0 -53 16 -118 81 -134 134 -16 55 -18 4128 -1 4188 13 47 85 121
131 135 20 5 420 10 1011 10 l977 1 0 -486z m570 -19 l345 -345 -348 0 -347 0
0 345 c0 190 1 345 3 345 1 0 157 -155 347 -345z"/>
<path d="M1544 2861 c-44 -27 -60 -77 -41 -124 31 -72 -50 -67 1058 -67 984 0
997 0 1022 20 38 30 52 80 33 123 -29 71 34 67 -1058 67 -952 0 -984 -1 -1014
-19z"/>
<path d="M1553 2014 c-29 -15 -63 -65 -63 -94 0 -7 7 -27 16 -45 32 -68 -24
-65 1054 -65 1078 0 1022 -3 1054 65 9 18 16 38 16 45 0 7 -7 27 -16 45 -32
68 24 65 -1056 65 -863 0 -977 -2 -1005 -16z"/>
<path d="M1537 1150 c-38 -30 -52 -80 -33 -123 29 -71 -34 -67 1056 -67 1090
0 1027 -4 1056 67 19 43 5 93 -33 123 -25 20 -38 20 -1023 20 -985 0 -998 0
-1023 -20z"/>
</g>
</svg>
