<svg width="18" height="16" viewBox="0 0 18 16" fill="none" xmlns="http://www.w3.org/2000/svg">
<path d="M8.1665 15.5V13.8333H14.8332V7.91667C14.8332 6.29167 14.2672 4.91319 13.1353 3.78125C12.0033 2.64931 10.6248 2.08333 8.99984 2.08333C7.37484 2.08333 5.99636 2.64931 4.86442 3.78125C3.73248 4.91319 3.1665 6.29167 3.1665 7.91667V13H2.33317C1.87484 13 1.48248 12.8368 1.15609 12.5104C0.829698 12.184 0.666504 11.7917 0.666504 11.3333V9.66667C0.666504 9.375 0.739421 9.10069 0.885254 8.84375C1.03109 8.58681 1.23595 8.38194 1.49984 8.22917L1.56234 7.125C1.67345 6.18056 1.94775 5.30556 2.38525 4.5C2.82275 3.69444 3.37136 2.99306 4.03109 2.39583C4.69081 1.79861 5.44775 1.33333 6.30192 1C7.15609 0.666667 8.05539 0.5 8.99984 0.5C9.94428 0.5 10.8401 0.666667 11.6873 1C12.5346 1.33333 13.2915 1.79514 13.9582 2.38542C14.6248 2.97569 15.1734 3.67361 15.604 4.47917C16.0346 5.28472 16.3123 6.15972 16.4373 7.10417L16.4998 8.1875C16.7637 8.3125 16.9686 8.5 17.1144 8.75C17.2603 9 17.3332 9.26389 17.3332 9.54167V11.4583C17.3332 11.7361 17.2603 12 17.1144 12.25C16.9686 12.5 16.7637 12.6875 16.4998 12.8125V13.8333C16.4998 14.2917 16.3366 14.684 16.0103 15.0104C15.6839 15.3368 15.2915 15.5 14.8332 15.5H8.1665ZM6.49984 9.66667C6.26373 9.66667 6.06581 9.58681 5.90609 9.42708C5.74636 9.26736 5.6665 9.06944 5.6665 8.83333C5.6665 8.59722 5.74636 8.39931 5.90609 8.23958C6.06581 8.07986 6.26373 8 6.49984 8C6.73595 8 6.93386 8.07986 7.09359 8.23958C7.25331 8.39931 7.33317 8.59722 7.33317 8.83333C7.33317 9.06944 7.25331 9.26736 7.09359 9.42708C6.93386 9.58681 6.73595 9.66667 6.49984 9.66667ZM11.4998 9.66667C11.2637 9.66667 11.0658 9.58681 10.9061 9.42708C10.7464 9.26736 10.6665 9.06944 10.6665 8.83333C10.6665 8.59722 10.7464 8.39931 10.9061 8.23958C11.0658 8.07986 11.2637 8 11.4998 8C11.7359 8 11.9339 8.07986 12.0936 8.23958C12.2533 8.39931 12.3332 8.59722 12.3332 8.83333C12.3332 9.06944 12.2533 9.26736 12.0936 9.42708C11.9339 9.58681 11.7359 9.66667 11.4998 9.66667ZM4.02067 8.375C3.92345 6.90278 4.36789 5.63889 5.354 4.58333C6.34011 3.52778 7.56928 3 9.0415 3C10.2776 3 11.3644 3.39236 12.3019 4.17708C13.2394 4.96181 13.8054 5.96528 13.9998 7.1875C12.7359 7.17361 11.5728 6.83333 10.5103 6.16667C9.44775 5.5 8.63178 4.59722 8.06234 3.45833C7.84011 4.56944 7.37136 5.55903 6.65609 6.42708C5.94081 7.29514 5.06234 7.94444 4.02067 8.375Z" fill="#010A51"/>
</svg>
