<?xml version="1.0" standalone="no"?>
<!DOCTYPE svg PUBLIC "-//W3C//DTD SVG 20010904//EN"
 "http://www.w3.org/TR/2001/REC-SVG-20010904/DTD/svg10.dtd">
<svg version="1.0" xmlns="http://www.w3.org/2000/svg"
 width="512.000000pt" height="512.000000pt" viewBox="0 0 512.000000 512.000000"
 preserveAspectRatio="xMidYMid meet">

<g transform="translate(0.000000,512.000000) scale(0.100000,-0.100000)"
fill="#000000" stroke="none">
<path d="M2875 4545 c-22 -8 -42 -15 -44 -15 -3 0 -70 -65 -150 -145 l-146
-145 -1105 -2 -1105 -3 -52 -24 c-66 -29 -143 -111 -169 -176 -18 -49 -19 -94
-19 -1675 l0 -1625 22 -40 c25 -47 64 -85 113 -111 34 -18 110 -19 2340 -19
2230 0 2306 1 2340 19 49 26 88 64 113 111 l22 40 0 1825 0 1825 -22 40 c-25
47 -64 85 -113 111 -33 18 -80 19 -1010 21 -832 2 -981 0 -1015 -12z m1980
-170 l25 -24 0 -616 0 -615 -160 0 -160 0 0 371 0 371 -29 29 -29 29 -1942 0
-1942 0 -29 -29 -29 -29 0 -131 0 -131 -160 0 -160 0 0 184 c0 174 1 185 23
217 12 18 38 44 56 56 l34 23 1115 0 1115 0 162 160 163 160 961 0 962 0 24
-25z m-455 -935 l0 -320 -1182 0 -1183 0 -215 214 c-127 125 -234 223 -260
237 l-45 24 -397 3 -398 3 0 79 0 80 1840 0 1840 0 0 -320z m-2691 -224 c209
-207 231 -225 281 -240 48 -14 202 -16 1472 -16 l1418 0 0 -1095 0 -1096 -25
-24 -24 -25 -2271 0 -2271 0 -24 25 -25 24 0 1336 0 1335 621 0 622 0 226
-224z"/>
</g>
</svg>
