<svg width="13" height="10" viewBox="0 0 13 10" fill="none" xmlns="http://www.w3.org/2000/svg">
<path d="M3.575 10L0 5L3.575 0H13V10H3.575ZM4.69444 5.71429C4.89907 5.71429 5.0706 5.64583 5.20903 5.50893C5.34745 5.37202 5.41667 5.20238 5.41667 5C5.41667 4.79762 5.34745 4.62798 5.20903 4.49107C5.0706 4.35417 4.89907 4.28571 4.69444 4.28571C4.48981 4.28571 4.31829 4.35417 4.17986 4.49107C4.04144 4.62798 3.97222 4.79762 3.97222 5C3.97222 5.20238 4.04144 5.37202 4.17986 5.50893C4.31829 5.64583 4.48981 5.71429 4.69444 5.71429ZM7.22222 5.71429C7.42685 5.71429 7.59838 5.64583 7.73681 5.50893C7.87523 5.37202 7.94444 5.20238 7.94444 5C7.94444 4.79762 7.87523 4.62798 7.73681 4.49107C7.59838 4.35417 7.42685 4.28571 7.22222 4.28571C7.01759 4.28571 6.84607 4.35417 6.70764 4.49107C6.56921 4.62798 6.5 4.79762 6.5 5C6.5 5.20238 6.56921 5.37202 6.70764 5.50893C6.84607 5.64583 7.01759 5.71429 7.22222 5.71429ZM9.75 5.71429C9.95463 5.71429 10.1262 5.64583 10.2646 5.50893C10.403 5.37202 10.4722 5.20238 10.4722 5C10.4722 4.79762 10.403 4.62798 10.2646 4.49107C10.1262 4.35417 9.95463 4.28571 9.75 4.28571C9.54537 4.28571 9.37384 4.35417 9.23542 4.49107C9.09699 4.62798 9.02778 4.79762 9.02778 5C9.02778 5.20238 9.09699 5.37202 9.23542 5.50893C9.37384 5.64583 9.54537 5.71429 9.75 5.71429Z" fill="#717171"/>
<path d="M3.575 10L0 5L3.575 0H13V10H3.575ZM4.69444 5.71429C4.89907 5.71429 5.0706 5.64583 5.20903 5.50893C5.34745 5.37202 5.41667 5.20238 5.41667 5C5.41667 4.79762 5.34745 4.62798 5.20903 4.49107C5.0706 4.35417 4.89907 4.28571 4.69444 4.28571C4.48981 4.28571 4.31829 4.35417 4.17986 4.49107C4.04144 4.62798 3.97222 4.79762 3.97222 5C3.97222 5.20238 4.04144 5.37202 4.17986 5.50893C4.31829 5.64583 4.48981 5.71429 4.69444 5.71429ZM7.22222 5.71429C7.42685 5.71429 7.59838 5.64583 7.73681 5.50893C7.87523 5.37202 7.94444 5.20238 7.94444 5C7.94444 4.79762 7.87523 4.62798 7.73681 4.49107C7.59838 4.35417 7.42685 4.28571 7.22222 4.28571C7.01759 4.28571 6.84607 4.35417 6.70764 4.49107C6.56921 4.62798 6.5 4.79762 6.5 5C6.5 5.20238 6.56921 5.37202 6.70764 5.50893C6.84607 5.64583 7.01759 5.71429 7.22222 5.71429ZM9.75 5.71429C9.95463 5.71429 10.1262 5.64583 10.2646 5.50893C10.403 5.37202 10.4722 5.20238 10.4722 5C10.4722 4.79762 10.403 4.62798 10.2646 4.49107C10.1262 4.35417 9.95463 4.28571 9.75 4.28571C9.54537 4.28571 9.37384 4.35417 9.23542 4.49107C9.09699 4.62798 9.02778 4.79762 9.02778 5C9.02778 5.20238 9.09699 5.37202 9.23542 5.50893C9.37384 5.64583 9.54537 5.71429 9.75 5.71429Z" fill="black" fill-opacity="0.2"/>
<path d="M3.575 10L0 5L3.575 0H13V10H3.575ZM4.69444 5.71429C4.89907 5.71429 5.0706 5.64583 5.20903 5.50893C5.34745 5.37202 5.41667 5.20238 5.41667 5C5.41667 4.79762 5.34745 4.62798 5.20903 4.49107C5.0706 4.35417 4.89907 4.28571 4.69444 4.28571C4.48981 4.28571 4.31829 4.35417 4.17986 4.49107C4.04144 4.62798 3.97222 4.79762 3.97222 5C3.97222 5.20238 4.04144 5.37202 4.17986 5.50893C4.31829 5.64583 4.48981 5.71429 4.69444 5.71429ZM7.22222 5.71429C7.42685 5.71429 7.59838 5.64583 7.73681 5.50893C7.87523 5.37202 7.94444 5.20238 7.94444 5C7.94444 4.79762 7.87523 4.62798 7.73681 4.49107C7.59838 4.35417 7.42685 4.28571 7.22222 4.28571C7.01759 4.28571 6.84607 4.35417 6.70764 4.49107C6.56921 4.62798 6.5 4.79762 6.5 5C6.5 5.20238 6.56921 5.37202 6.70764 5.50893C6.84607 5.64583 7.01759 5.71429 7.22222 5.71429ZM9.75 5.71429C9.95463 5.71429 10.1262 5.64583 10.2646 5.50893C10.403 5.37202 10.4722 5.20238 10.4722 5C10.4722 4.79762 10.403 4.62798 10.2646 4.49107C10.1262 4.35417 9.95463 4.28571 9.75 4.28571C9.54537 4.28571 9.37384 4.35417 9.23542 4.49107C9.09699 4.62798 9.02778 4.79762 9.02778 5C9.02778 5.20238 9.09699 5.37202 9.23542 5.50893C9.37384 5.64583 9.54537 5.71429 9.75 5.71429Z" fill="black" fill-opacity="0.2"/>
</svg>
