<svg width="70" height="70" viewBox="0 0 70 70" fill="none" xmlns="http://www.w3.org/2000/svg">
<circle cx="35" cy="35" r="35" fill="#E6F6F2"/>
<mask id="mask0_3453_2415" style="mask-type:alpha" maskUnits="userSpaceOnUse" x="18" y="18" width="34" height="34">
<rect x="18" y="18" width="34" height="34" fill="#D9D9D9"/>
</mask>
<g mask="url(#mask0_3453_2415)">
<path d="M34.1256 47.0416V44.9167H44.4781C44.5962 44.9167 44.6983 44.8803 44.7846 44.8077C44.8709 44.735 44.914 44.6397 44.914 44.5216V34.6131C44.914 31.9051 43.9451 29.6253 42.0071 27.7736C40.0692 25.922 37.7326 24.9962 34.9974 24.9962C32.2621 24.9962 29.9255 25.922 27.9876 27.7736C26.0497 29.6253 25.0807 31.9051 25.0807 34.6131V42.9551H24.0182C23.339 42.9551 22.756 42.7185 22.2692 42.2454C21.7824 41.7723 21.5391 41.1961 21.5391 40.5168V37.7652C21.5391 37.3057 21.6698 36.8848 21.9314 36.5025C22.1929 36.1202 22.5344 35.8128 22.9557 35.5803L23.0211 33.7713C23.1283 32.2294 23.5219 30.8009 24.2021 29.486C24.8823 28.171 25.7605 27.0263 26.8366 26.0519C27.9127 25.0775 29.1518 24.3183 30.554 23.7743C31.9561 23.2304 33.4372 22.9584 34.9974 22.9584C36.5575 22.9584 38.035 23.2304 39.4299 23.7743C40.8247 24.3183 42.0616 25.0738 43.1404 26.041C44.2193 27.0081 45.0952 28.1492 45.7681 29.4641C46.441 30.7791 46.8428 32.2076 46.9736 33.7495L47.039 35.5231C47.4513 35.7174 47.7904 35.9953 48.0565 36.3567C48.3226 36.7182 48.4557 37.1214 48.4557 37.5663V40.7293C48.4557 41.1743 48.3226 41.5775 48.0565 41.9389C47.7904 42.3004 47.4513 42.5782 47.039 42.7726V44.5216C47.039 45.219 46.7888 45.8134 46.2884 46.3047C45.788 46.796 45.1846 47.0416 44.4781 47.0416H34.1256ZM31.0198 37.5064C30.6729 37.5064 30.3773 37.3888 30.1331 37.1536C29.8888 36.9184 29.7666 36.6274 29.7666 36.2805C29.7666 35.9335 29.8888 35.6402 30.1331 35.4005C30.3773 35.1608 30.6729 35.0409 31.0198 35.0409C31.3667 35.0409 31.6623 35.1608 31.9066 35.4005C32.1509 35.6402 32.273 35.9335 32.273 36.2805C32.273 36.6274 32.1509 36.9184 31.9066 37.1536C31.6623 37.3888 31.3667 37.5064 31.0198 37.5064ZM38.9749 37.5064C38.628 37.5064 38.3324 37.3888 38.0881 37.1536C37.8439 36.9184 37.7217 36.6274 37.7217 36.2805C37.7217 35.9335 37.8439 35.6402 38.0881 35.4005C38.3324 35.1608 38.628 35.0409 38.9749 35.0409C39.3218 35.0409 39.6174 35.1608 39.8617 35.4005C40.1059 35.6402 40.2281 35.9335 40.2281 36.2805C40.2281 36.6274 40.1059 36.9184 39.8617 37.1536C39.6174 37.3888 39.3218 37.5064 38.9749 37.5064ZM27.0232 35.2833C26.8761 32.9713 27.5953 30.9929 29.1809 29.3483C30.7665 27.7037 32.7289 26.8814 35.0682 26.8814C37.0333 26.8814 38.7674 27.4894 40.2703 28.7054C41.7733 29.9214 42.6855 31.4956 43.0069 33.428C40.9945 33.4044 39.1352 32.8759 37.4289 31.8425C35.7225 30.809 34.4125 29.3924 33.499 27.5925C33.1394 29.3542 32.3856 30.9117 31.2378 32.2647C30.0899 33.6178 28.685 34.624 27.0232 35.2833Z" fill="#1AA586"/>
</g>
</svg>
