<svg width="24" height="24" viewBox="0 0 24 24" fill="none" xmlns="http://www.w3.org/2000/svg">
<path d="M10.2279 17.3133L18.6317 8.90953L17.3144 7.59225L10.2279 14.6788L6.66539 11.1163L5.34811 12.4336L10.2279 17.3133ZM12.004 23.871C10.3616 23.871 8.81781 23.5594 7.37264 22.936C5.92745 22.3127 4.67035 21.4668 3.60133 20.3982C2.53229 19.3297 1.68596 18.0731 1.06236 16.6286C0.438755 15.184 0.126953 13.6406 0.126953 11.9982C0.126953 10.3557 0.43862 8.81195 1.06195 7.36678C1.68529 5.92159 2.53122 4.66449 3.59977 3.59547C4.66833 2.52643 5.92488 1.68011 7.36942 1.0565C8.81394 0.432897 10.3574 0.121094 11.9998 0.121094C13.6422 0.121094 15.186 0.432762 16.6312 1.0561C18.0764 1.67943 19.3335 2.52536 20.4025 3.59391C21.4716 4.66247 22.3179 5.91902 22.9415 7.36356C23.5651 8.80808 23.8769 10.3516 23.8769 11.994C23.8769 13.6364 23.5652 15.1802 22.9419 16.6253C22.3186 18.0705 21.4726 19.3276 20.4041 20.3967C19.3355 21.4657 18.079 22.312 16.6344 22.9356C15.1899 23.5592 13.6464 23.871 12.004 23.871Z" fill="#1AA586"/>
</svg>
