<svg width="15" height="20" viewBox="0 0 15 20" fill="none" xmlns="http://www.w3.org/2000/svg">
<path d="M5.5 20C3.96667 20 2.66667 19.4667 1.6 18.4C0.533333 17.3333 0 16.0333 0 14.5V4C0 2.9 0.391667 1.95833 1.175 1.175C1.95833 0.391667 2.9 0 4 0C5.1 0 6.04167 0.391667 6.825 1.175C7.60833 1.95833 8 2.9 8 4V12H6.5V4C6.5 3.3 6.25833 2.70833 5.775 2.225C5.29167 1.74167 4.7 1.5 4 1.5C3.3 1.5 2.70833 1.74167 2.225 2.225C1.74167 2.70833 1.5 3.3 1.5 4V14.5C1.5 15.6 1.89167 16.5417 2.675 17.325C3.45833 18.1083 4.4 18.5 5.5 18.5C5.98333 18.5 6.4375 18.4208 6.8625 18.2625C7.2875 18.1042 7.66667 17.8833 8 17.6V19.4C7.61667 19.5833 7.21667 19.7292 6.8 19.8375C6.38333 19.9458 5.95 20 5.5 20ZM10 19V16H7V14H10V11H12V14H15V16H12V19H10ZM5.5 14.5V16C4.8 16 4.20833 15.7583 3.725 15.275C3.24167 14.7917 3 14.2 3 13.5V4H4.5V13.5C4.5 13.7833 4.59583 14.0208 4.7875 14.2125C4.97917 14.4042 5.21667 14.5 5.5 14.5ZM9.5 9V4H11V9H9.5Z" fill="black"/>
</svg>
