<svg width="30" height="30" viewBox="0 0 30 30" fill="none" xmlns="http://www.w3.org/2000/svg">
<circle cx="15" cy="15" r="15" fill="#3DA0FF"/>
<mask id="mask0_113_417" style="mask-type:alpha" maskUnits="userSpaceOnUse" x="6" y="6" width="18" height="18">
<rect x="6" y="6" width="18" height="18" fill="#D9D9D9"/>
</mask>
<g mask="url(#mask0_113_417)">
<path d="M17.0548 18.2938L14.4355 15.6746V11.975H15.5605V15.2145L17.8379 17.4919L17.0548 18.2938ZM14.4355 10.5039V9.00389H15.5605V10.5039H14.4355ZM19.498 15.5664V14.4414H20.998V15.5664H19.498ZM14.4355 21.0039V19.5039H15.5605V21.0039H14.4355ZM8.99803 15.5664V14.4414H10.498V15.5664H8.99803ZM14.9993 22.1289C14.0138 22.1289 13.0876 21.9419 12.2205 21.5679C11.3533 21.1939 10.5991 20.6863 9.95767 20.0452C9.31625 19.404 8.80845 18.6501 8.43429 17.7834C8.06013 16.9167 7.87305 15.9906 7.87305 15.0051C7.87305 14.0197 8.06005 13.0934 8.43405 12.2263C8.80805 11.3592 9.31561 10.6049 9.95673 9.96353C10.5979 9.32211 11.3518 8.81431 12.2185 8.44015C13.0852 8.06599 14.0113 7.87891 14.9968 7.87891C15.9822 7.87891 16.9085 8.06591 17.7756 8.43991C18.6427 8.81391 19.397 9.32147 20.0384 9.96259C20.6798 10.6037 21.1876 11.3577 21.5618 12.2244C21.9359 13.0911 22.123 14.0172 22.123 15.0026C22.123 15.9881 21.936 16.9144 21.562 17.7815C21.188 18.6486 20.6804 19.4028 20.0393 20.0442C19.3982 20.6857 18.6443 21.1935 17.7775 21.5676C16.9108 21.9418 15.9847 22.1289 14.9993 22.1289ZM14.998 21.0039C16.673 21.0039 18.0918 20.4226 19.2543 19.2601C20.4168 18.0976 20.998 16.6789 20.998 15.0039C20.998 13.3289 20.4168 11.9101 19.2543 10.7476C18.0918 9.58514 16.673 9.00389 14.998 9.00389C13.323 9.00389 11.9043 9.58514 10.7418 10.7476C9.57928 11.9101 8.99803 13.3289 8.99803 15.0039C8.99803 16.6789 9.57928 18.0976 10.7418 19.2601C11.9043 20.4226 13.323 21.0039 14.998 21.0039Z" fill="white"/>
</g>
</svg>
