<svg width="30" height="30" viewBox="0 0 30 30" fill="none" xmlns="http://www.w3.org/2000/svg">
<circle cx="15" cy="15" r="15" fill="#1AA586"/>
<mask id="mask0_110_21" style="mask-type:alpha" maskUnits="userSpaceOnUse" x="6" y="6" width="18" height="18">
<rect x="6" y="6" width="18" height="18" fill="#D9D9D9"/>
</mask>
<g mask="url(#mask0_110_21)">
<path d="M15.0012 22.125C14.0158 22.125 13.0895 21.938 12.2224 21.564C11.3553 21.19 10.601 20.6824 9.95963 20.0413C9.3182 19.4001 8.81041 18.6462 8.43624 17.7795C8.06208 16.9128 7.875 15.9867 7.875 15.0012C7.875 14.0158 8.06203 13.0895 8.43609 12.2224C8.81016 11.3553 9.31781 10.601 9.95906 9.95963C10.6003 9.3182 11.3544 8.81041 12.2213 8.43624C13.0881 8.06208 14.0144 7.875 15 7.875C15.79 7.875 16.5375 7.99375 17.2425 8.23125C17.9475 8.46875 18.5942 8.8 19.1827 9.225L18.3692 10.0572C17.8846 9.72355 17.3597 9.46393 16.7944 9.27834C16.2291 9.09277 15.631 8.99998 15 8.99998C13.3375 8.99998 11.9219 9.58436 10.7531 10.7531C9.58436 11.9219 8.99998 13.3375 8.99998 15C8.99998 16.6625 9.58436 18.0781 10.7531 19.2469C11.9219 20.4156 13.3375 21 15 21C16.6625 21 18.0781 20.4156 19.2469 19.2469C20.4156 18.0781 21 16.6625 21 15C21 14.7365 20.9827 14.476 20.9481 14.2183C20.9134 13.9606 20.8615 13.7101 20.7923 13.4668L21.7009 12.551C21.8384 12.9365 21.9435 13.3332 22.0161 13.7409C22.0887 14.1486 22.125 14.5683 22.125 15C22.125 15.9856 21.938 16.9119 21.564 17.7787C21.19 18.6456 20.6824 19.3997 20.0413 20.0409C19.4001 20.6822 18.6462 21.1898 17.7795 21.5639C16.9128 21.9379 15.9867 22.125 15.0012 22.125ZM13.9356 18.1904L11.0077 15.2625L11.7981 14.4721L13.9356 16.6096L21.3346 9.19905L22.125 9.98942L13.9356 18.1904Z" fill="white"/>
</g>
</svg>
