<svg width="70" height="70" viewBox="0 0 70 70" fill="none" xmlns="http://www.w3.org/2000/svg">
<circle cx="35" cy="35" r="35" fill="#D6EBFF"/>
<mask id="mask0_124_16" style="mask-type:alpha" maskUnits="userSpaceOnUse" x="18" y="18" width="34" height="34">
<rect x="18" y="18" width="34" height="34" fill="#D9D9D9"/>
</mask>
<g mask="url(#mask0_124_16)">
<path d="M34.1285 47.0422V44.9173H44.481C44.5991 44.9173 44.7013 44.881 44.7875 44.8083C44.8738 44.7357 44.917 44.6403 44.917 44.5222V34.6137C44.917 31.9057 43.948 29.6259 42.0101 27.7742C40.0721 25.9226 37.7355 24.9968 35.0003 24.9968C32.265 24.9968 29.9284 25.9226 27.9905 27.7742C26.0526 29.6259 25.0836 31.9057 25.0836 34.6137V42.9557H24.0212C23.3419 42.9557 22.7589 42.7191 22.2721 42.246C21.7854 41.7729 21.542 41.1967 21.542 40.5174V37.7658C21.542 37.3063 21.6728 36.8854 21.9343 36.5031C22.1958 36.1208 22.5373 35.8134 22.9587 35.5809L23.0241 33.7719C23.1312 32.23 23.5249 30.8015 24.205 29.4866C24.8852 28.1716 25.7634 27.0269 26.8395 26.0525C27.9156 25.0781 29.1547 24.3189 30.5569 23.7749C31.959 23.231 33.4401 22.959 35.0003 22.959C36.5604 22.959 38.038 23.231 39.4328 23.7749C40.8277 24.3189 42.0645 25.0745 43.1434 26.0416C44.2222 27.0088 45.0981 28.1498 45.771 29.4647C46.4439 30.7797 46.8458 32.2082 46.9765 33.7502L47.0419 35.5237C47.4542 35.718 47.7934 35.9959 48.0594 36.3574C48.3255 36.7188 48.4586 37.122 48.4586 37.5669V40.7299C48.4586 41.1749 48.3255 41.5781 48.0594 41.9395C47.7934 42.301 47.4542 42.5789 47.0419 42.7732V44.5222C47.0419 45.2197 46.7917 45.814 46.2913 46.3053C45.791 46.7966 45.1875 47.0422 44.481 47.0422H34.1285ZM31.0228 37.507C30.6759 37.507 30.3803 37.3894 30.136 37.1542C29.8917 36.919 29.7696 36.628 29.7696 36.2811C29.7696 35.9342 29.8917 35.6408 30.136 35.4011C30.3803 35.1614 30.6759 35.0415 31.0228 35.0415C31.3696 35.0415 31.6652 35.1614 31.9095 35.4011C32.1538 35.6408 32.2759 35.9342 32.2759 36.2811C32.2759 36.628 32.1538 36.919 31.9095 37.1542C31.6652 37.3894 31.3696 37.507 31.0228 37.507ZM38.9778 37.507C38.6309 37.507 38.3353 37.3894 38.0911 37.1542C37.8468 36.919 37.7246 36.628 37.7246 36.2811C37.7246 35.9342 37.8468 35.6408 38.0911 35.4011C38.3353 35.1614 38.6309 35.0415 38.9778 35.0415C39.3247 35.0415 39.6203 35.1614 39.8646 35.4011C40.1089 35.6408 40.231 35.9342 40.231 36.2811C40.231 36.628 40.1089 36.919 39.8646 37.1542C39.6203 37.3894 39.3247 37.507 38.9778 37.507ZM27.0261 35.2839C26.879 32.9719 27.5982 30.9935 29.1838 29.3489C30.7694 27.7043 32.7318 26.8821 35.0711 26.8821C37.0363 26.8821 38.7703 27.49 40.2733 28.706C41.7762 29.922 42.6884 31.4962 43.0099 33.4286C40.9975 33.405 39.1381 32.8765 37.4318 31.8431C35.7254 30.8096 34.4155 29.393 33.5019 27.5931C33.1423 29.3549 32.3886 30.9123 31.2407 32.2654C30.0928 33.6184 28.688 34.6246 27.0261 35.2839Z" fill="#3DA0FF"/>
</g>
</svg>
